<?xml version="1.0" encoding="UTF-8"?>
<!DOCTYPE svg PUBLIC "-//W3C//DTD SVG 1.0//EN" "http://www.w3.org/TR/2001/REC-SVG-20010904/DTD/svg10.dtd">
<!-- Creator: CorelDRAW 2018 (64 Bit Versión de evaluación) -->
<svg xmlns="http://www.w3.org/2000/svg" xml:space="preserve" width="8.8557mm" height="8.8753mm" version="1.0" style="shape-rendering:geometricPrecision; text-rendering:geometricPrecision; image-rendering:optimizeQuality; fill-rule:evenodd; clip-rule:evenodd"
viewBox="0 0 885.36 887.32"
 xmlns:xlink="http://www.w3.org/1999/xlink">
 <defs>
  <style type="text/css">
   <![CDATA[
    .str0 {stroke:#1BD741;stroke-width:90.19;stroke-miterlimit:22.9256}
    .fil0 {fill:none}
    .fil2 {fill:#1BD741}
    .fil1 {fill:#FEFEFE}
   ]]>
  </style>
 </defs>
 <g id="Capa_x0020_1">
  <metadata id="CorelCorpID_0Corel-Layer"/>
  <g id="_1356380672736">
   <g>
    <path class="fil0 str0" d="M105.51 674.83l-41.21 149.11 198.28 -51.7c56.03,31.45 120.74,49.35 189.43,49.35 214.37,0 388.25,-173.88 388.25,-388.25 0,-214.37 -173.88,-388.25 -388.25,-388.25 -75.8,0 -146.54,21.75 -206.31,59.33 -42.04,26.43 -78.67,60.7 -107.81,100.75 -46.61,64.04 -74.12,142.92 -74.12,228.18 0,69.75 18.45,135.11 50.55,191.64 4.47,7.82 3.54,4.89 1,14.39 -2.75,10.26 -7.28,27.03 -9.8,35.45z"/>
    <path id="_1" class="fil1" d="M117.62 630.55c-0.72,8.14 -4.7,19.53 -12.11,44.28l-41.21 149.11 198.28 -51.7c56.03,31.45 120.74,49.35 189.43,49.35 214.37,0 388.25,-173.88 388.25,-388.25 0,-214.37 -173.88,-388.25 -388.25,-388.25 -214.37,0 -388.25,173.88 -388.25,388.25 0,72.12 19.71,139.54 53.87,197.37l-0.01 -0.17z"/>
   </g>
   <path class="fil2" d="M451.1 103.49c182.56,0 330.59,148.03 330.59,330.59 0,182.56 -148.03,330.59 -330.59,330.59 -65.61,0 -126.7,-19.16 -178.04,-52.06l-130.5 37.59 40.13 -123.09c-39.22,-54.41 -62.36,-121.1 -62.36,-193.21 0,-47.95 10.22,-93.53 28.58,-134.65 23.44,-52.5 60.17,-97.77 105.9,-131.52 54.86,-40.49 122.69,-64.42 196.1,-64.42l0.17 0.18z"/>
   <path class="fil1" d="M257.16 338.28c0,58.75 20.97,88.21 56.03,134.12 33.8,44.1 79.71,87.48 129.23,112.24 54.23,26.93 117.3,53.5 172.25,13.56 20.07,-14.46 26.57,-22.77 30.54,-52.6 3.8,-28.74 -5.6,-25.3 -37.78,-40.67 -65.25,-31.27 -55.67,-34.7 -79.53,-3.25l-21.5 25.12c-5.97,4.34 -7.77,3.98 -14.82,1.63 -47.72,-16.45 -87.48,-51.15 -117.12,-90.56 -8.68,-11.57 -17.36,-22.23 -17.36,-33.8 0,-7.59 31.63,-32.35 31.63,-48.8 0,-6.51 -25.84,-64.88 -31.27,-78.44 -9.4,-23.31 -14.82,-19.16 -41.93,-19.16 -32.17,0 -58.57,52.42 -58.57,80.43l0.2 0.17z"/>
  </g>
 </g>
</svg>
