<?xml version="1.0" encoding="UTF-8"?>
<!DOCTYPE svg PUBLIC "-//W3C//DTD SVG 1.0//EN" "http://www.w3.org/TR/2001/REC-SVG-20010904/DTD/svg10.dtd">
<!-- Creator: CorelDRAW 2018 (64 Bit Versión de evaluación) -->
<svg xmlns="http://www.w3.org/2000/svg" xml:space="preserve" width="11.669mm" height="11.669mm" version="1.0" style="shape-rendering:geometricPrecision; text-rendering:geometricPrecision; image-rendering:optimizeQuality; fill-rule:evenodd; clip-rule:evenodd"
viewBox="0 0 65.9 65.9"
 xmlns:xlink="http://www.w3.org/1999/xlink">
 <defs>
  <style type="text/css">
   <![CDATA[
    .str0 {stroke:#FEFEFE;stroke-width:0.43;stroke-miterlimit:22.9256}
    .fil0 {fill:#FEFEFE}
    .fil2 {fill:#373435}
    .fil1 {fill:#FFCC29}
   ]]>
  </style>
 </defs>
 <g id="Capa_x0020_1">
  <metadata id="CorelCorpID_0Corel-Layer"/>
  <path class="fil0 str0" d="M32.95 0.22c18.08,0 32.73,14.66 32.73,32.73 0,18.08 -14.66,32.73 -32.73,32.73 -18.08,0 -32.73,-14.65 -32.73,-32.73 0,-18.08 14.65,-32.73 32.73,-32.73z"/>
  <path class="fil1 str0" d="M32.95 2.89c16.6,0 30.06,13.46 30.06,30.06 0,16.6 -13.46,30.06 -30.06,30.06 -16.6,0 -30.06,-13.46 -30.06,-30.06 0,-16.6 13.46,-30.06 30.06,-30.06z"/>
  <path class="fil2" d="M12.93 17.35l5.54 0 0 6.4 8.31 0 0 -6.4 10.67 0 0 6.4 8.31 0 0 -6.4 5.29 0 0 34.26 -38.11 0 0 -34.26zm2.98 9.66l32.56 0 0 21.74 -32.56 0 0 -21.74z"/>
  <path class="fil2" d="M22.63 12.75l0.16 0c1.4,0 2.54,1.14 2.54,2.54l0 3.06c0,1.4 -1.14,2.54 -2.54,2.54l-0.16 0c-1.4,0 -2.54,-1.14 -2.54,-2.54l0 -3.06c0,-1.4 1.14,-2.54 2.54,-2.54z"/>
  <path class="fil2" d="M41.59 12.75l0.16 0c1.4,0 2.54,1.14 2.54,2.54l0 3.06c0,1.4 -1.14,2.54 -2.54,2.54l-0.16 0c-1.4,0 -2.54,-1.14 -2.54,-2.54l0 -3.06c0,-1.4 1.14,-2.54 2.54,-2.54z"/>
  <path class="fil2" d="M26.62 29.58l4.53 0 0 4.22 -4.53 0 0 -4.22z"/>
  <path class="fil2" d="M33.5 29.58l4.53 0 0 4.22 -4.53 0 0 -4.22z"/>
  <path class="fil2" d="M39.98 29.58l4.53 0 0 4.22 -4.53 0 0 -4.22z"/>
  <path class="fil2" d="M26.62 35.84l4.53 0 0 4.22 -4.53 0 0 -4.22z"/>
  <path class="fil2" d="M33.5 35.84l4.53 0 0 4.22 -4.53 0 0 -4.22z"/>
  <path class="fil2" d="M39.98 35.84l4.53 0 0 4.22 -4.53 0 0 -4.22z"/>
  <path class="fil2" d="M19.74 35.84l4.53 0 0 4.22 -4.53 0 0 -4.22z"/>
  <path class="fil2" d="M26.62 42.37l4.53 0 0 4.22 -4.53 0 0 -4.22z"/>
  <path class="fil2" d="M33.5 42.37l4.53 0 0 4.22 -4.53 0 0 -4.22z"/>
  <path class="fil2" d="M39.98 42.37l4.53 0 0 4.22 -4.53 0 0 -4.22z"/>
  <path class="fil2" d="M19.74 42.37l4.53 0 0 4.22 -4.53 0 0 -4.22z"/>
 </g>
</svg>
