<?xml version="1.0" encoding="UTF-8"?>
<!DOCTYPE svg PUBLIC "-//W3C//DTD SVG 1.0//EN" "http://www.w3.org/TR/2001/REC-SVG-20010904/DTD/svg10.dtd">
<!-- Creator: CorelDRAW 2018 (64 Bit Versión de evaluación) -->
<svg xmlns="http://www.w3.org/2000/svg" xml:space="preserve" width="8.8777mm" height="13.2905mm" version="1.0" style="shape-rendering:geometricPrecision; text-rendering:geometricPrecision; image-rendering:optimizeQuality; fill-rule:evenodd; clip-rule:evenodd"
viewBox="0 0 60.09 89.96"
 xmlns:xlink="http://www.w3.org/1999/xlink">
 <defs>
  <style type="text/css">
   <![CDATA[
    .fil0 {fill:#FFCC29}
   ]]>
  </style>
 </defs>
 <g id="Capa_x0020_1">
  <metadata id="CorelCorpID_0Corel-Layer"/>
  <path class="fil0" d="M19.33 10.54c-2.95,0 -5.26,-0.39 -7.43,2.06 -1.4,1.58 -1.54,3.33 -1.54,5.67l-6.68 0c-1.89,0 -3.69,1.81 -3.69,3.69l0 64.31c0,1.84 1.85,3.69 3.69,3.69l52.71 0c1.84,0 3.69,-1.85 3.69,-3.69l0 -64.31c0,-1.88 -1.8,-3.69 -3.69,-3.69l-6.68 0c0,-2.29 -0.12,-3.99 -1.45,-5.57 -2.15,-2.55 -4.61,-2.16 -7.51,-2.16 0,-5.79 -4.97,-10.54 -10.19,-10.54 -3.66,0 -5.92,0.91 -8.22,3.21 -1.62,1.61 -3.03,4.16 -3.03,7.34zm12.65 28.29c0,2.78 1.7,3.87 4.39,3.87l10.72 0c1.36,0 2.41,-0.19 3.27,-0.77 2.3,-1.58 2.47,-6.43 -3.27,-6.43l-10.37 0c-2.3,0 -4.74,0.75 -4.74,3.34zm0 31.63c0,1.18 0.01,2.18 1.33,3.07 0.83,0.56 1.58,0.8 2.89,0.8l11.25 0c6.18,0 5.14,-7.03 1.05,-7.03l-13.35 0c-1.65,0 -3.16,1.51 -3.16,3.16zm0 -15.81l0 0.88c0,1.67 1.66,3.16 3.34,3.16l12.83 0c1.16,0 1.91,-0.37 2.56,-0.95 2.17,-1.94 1.09,-6.07 -2.74,-6.07l-12.3 0c-1.15,0 -1.83,0.32 -2.49,0.84 -0.48,0.39 -1.2,1.35 -1.2,2.14zm-14.76 15.81c-1.03,-0.69 -2.72,-2.5 -3.82,-2.38 -0.92,0.1 -3.03,2.55 -3.03,3.26 0,1.26 1.68,2.32 3.01,3.31 5.23,3.9 3.75,4.07 12.76,-4.94 1.15,-1.15 2.33,-1.81 2.33,-3.47 0,-1.06 -1.58,-2.55 -2.46,-2.83 -1.55,-0.49 -2.55,0.89 -3.39,1.73l-5.4 5.31zm0 -31.63c-0.11,-0.1 -0.23,-0.21 -0.38,-0.32 -3.13,-2.53 -3.32,-2.82 -5.2,-0.69 -2.27,2.57 -1.7,2.64 3.62,6.66 3.21,2.43 4.32,0.16 8.24,-3.76 1.04,-1.04 4.96,-4.45 4.96,-5.75 0,-1.58 -1.56,-2.9 -2.46,-3.18 -1.83,-0.58 -4.11,2.45 -6.02,4.37 -0.75,0.75 -2,2.17 -2.77,2.68zm0.18 16.16c-0.55,-0.37 -1.25,-0.91 -1.8,-1.37 -1.76,-1.47 -2.52,-1.53 -3.95,0.19 -0.32,0.39 -0.35,0.48 -0.71,0.87 -1.15,1.23 -0.48,2.08 0.62,2.99 0.94,0.78 4.48,3.82 5.49,3.82 1.99,0 2.18,-0.33 3.91,-2.06l5.27 -5.27c1.1,-1.11 2.24,-1.86 2.24,-3.38 0,-1.03 -1.65,-2.99 -3.16,-2.99 -1.18,0 -3.07,2.28 -4.17,3.38 -0.94,0.94 -3.11,2.89 -3.73,3.82zm12.76 -51.4c3.37,0 6.11,2.73 6.11,6.11 0,0.36 -0.03,0.71 -0.09,1.06l-12.03 0c-0.06,-0.34 -0.09,-0.7 -0.09,-1.06 0,-3.37 2.74,-6.11 6.11,-6.11zm-23.68 21.82l47.58 0 0 57.15 -47.58 0 0 -57.15z"/>
 </g>
</svg>
