<?xml version="1.0" encoding="UTF-8"?>
<!DOCTYPE svg PUBLIC "-//W3C//DTD SVG 1.0//EN" "http://www.w3.org/TR/2001/REC-SVG-20010904/DTD/svg10.dtd">
<!-- Creator: CorelDRAW 2018 (64 Bit Versión de evaluación) -->
<svg xmlns="http://www.w3.org/2000/svg" xml:space="preserve" width="26.1485mm" height="20.805mm" version="1.0" style="shape-rendering:geometricPrecision; text-rendering:geometricPrecision; image-rendering:optimizeQuality; fill-rule:evenodd; clip-rule:evenodd"
viewBox="0 0 264.57 210.5"
 xmlns:xlink="http://www.w3.org/1999/xlink">
 <defs>
  <style type="text/css">
   <![CDATA[
    .fil1 {fill:#FEFEFE}
    .fil0 {fill:#373435;fill-rule:nonzero}
   ]]>
  </style>
 </defs>
 <g id="Capa_x0020_1">
  <metadata id="CorelCorpID_0Corel-Layer"/>
  <g>
   <path class="fil0" d="M91.91 27.5l-64.96 63.36 -17.8 -18.55 64.96 -63.36 18.07 0.33 -0.27 18.22zm-17.8 -18.55l9.17 -8.94 8.9 9.28 -18.07 -0.33zm14.94 34.07l-15.21 -15.85 18.34 -17.89 15.21 15.85 -0.27 18.22 -18.07 -0.33zm18.07 0.33l-9.17 8.94 -8.9 -9.28 18.07 0.33zm8.86 -8.64l-8.86 8.64 -17.8 -18.55 8.86 -8.64 18.07 0.33 -0.27 18.22zm-17.8 -18.55l9.17 -8.94 8.9 9.28 -18.07 -0.33zm16.66 35.86l-16.93 -17.64 18.34 -17.89 16.93 17.64 -0.27 18.22 -18.07 -0.33zm18.07 0.33l-9.17 8.94 -8.9 -9.28 18.07 0.33zm7.97 -7.77l-7.97 7.77 -17.8 -18.55 7.97 -7.77 18.07 0.33 -0.27 18.22zm-17.8 -18.55l9.17 -8.94 8.9 9.28 -18.07 -0.33zm14.64 33.76l-14.91 -15.55 18.34 -17.89 14.91 15.55 -0.27 18.22 -18.07 -0.33zm18.07 0.33l-9.17 8.94 -8.9 -9.28 18.07 0.33zm7.38 -7.2l-7.38 7.2 -17.8 -18.55 7.38 -7.2 18.07 0.33 -0.27 18.22zm-17.8 -18.55l9.17 -8.94 8.9 9.28 -18.07 -0.33zm15.51 34.67l-15.78 -16.45 18.34 -17.89 15.78 16.45 -0.27 18.22 -18.07 -0.33zm18.07 0.33l-9.17 8.94 -8.9 -9.28 18.07 0.33zm7.97 -7.77l-7.97 7.77 -17.8 -18.55 7.97 -7.77 18.07 0.33 -0.27 18.22zm-17.8 -18.55l9.17 -8.94 8.9 9.28 -18.07 -0.33zm8.05 26.89l-8.32 -8.67 18.34 -17.89 8.32 8.67 -0.27 18.22 -18.07 -0.33zm18.07 0.33l-9.17 8.94 -8.9 -9.28 18.07 0.33zm8.27 -8.06l-8.27 8.06 -17.8 -18.55 8.27 -8.06 18.07 0.33 -0.27 18.22zm-17.8 -18.55l9.17 -8.94 8.9 9.28 -18.07 -0.33zm14.65 33.77l-14.92 -15.55 18.34 -17.89 14.92 15.55 -0.27 18.22 -18.07 -0.33zm18.34 -17.89l8.9 9.28 -9.17 8.94 0.27 -18.22zm-33.42 14.64l15.35 -14.97 17.8 18.55 -15.35 14.97 -18.07 -0.33 0.27 -18.22zm17.8 18.55l-9.17 8.94 -8.9 -9.28 18.07 0.33zm-8.63 -27.49l8.9 9.27 -18.34 17.89 -8.9 -9.27 0.27 -18.22 18.07 0.33zm-18.07 -0.33l9.17 -8.94 8.9 9.28 -18.07 -0.33zm-6.79 6.63l6.79 -6.63 17.8 18.55 -6.79 6.63 -18.07 -0.33 0.27 -18.22zm17.8 18.55l-9.17 8.94 -8.9 -9.28 18.07 0.33zm-24.4 -43.93l24.67 25.72 -18.34 17.89 -24.67 -25.72 0.27 -18.22 18.07 0.33zm-18.07 -0.33l9.17 -8.94 8.9 9.28 -18.07 -0.33zm-9.45 9.22l9.45 -9.22 17.8 18.55 -9.45 9.22 -18.07 -0.33 0.27 -18.22zm-0.27 18.22l-8.9 -9.28 9.17 -8.94 -0.27 18.22zm102.13 106.46l-102.13 -106.46 18.34 -17.89 102.13 106.46 -0.27 18.22 -18.07 -0.33zm18.34 -17.89l8.9 9.28 -9.17 8.94 0.27 -18.22zm-34.9 16.08l16.83 -16.41 17.8 18.55 -16.83 16.41 -18.07 -0.33 0.27 -18.22zm17.8 18.55l-9.17 8.94 -8.9 -9.28 18.07 0.33zm-70.87 -92.38l71.14 74.16 -18.34 17.89 -71.14 -74.16 0.27 -18.22 18.07 0.33zm-18.07 -0.33l9.17 -8.94 8.9 9.28 -18.07 -0.33zm-9.16 8.93l9.16 -8.93 17.8 18.55 -9.16 8.93 -18.07 -0.33 0.27 -18.22zm-0.27 18.22l-8.9 -9.28 9.17 -8.94 -0.27 18.22zm33.27 34.69l-33.27 -34.69 18.34 -17.89 33.27 34.69 -0.27 18.22 -18.07 -0.33zm18.34 -17.89l8.9 9.28 -9.17 8.94 0.27 -18.22zm-32.53 13.78l14.47 -14.11 17.8 18.55 -14.47 14.11 -18.07 -0.33 0.27 -18.22zm17.8 18.55l-9.17 8.94 -8.9 -9.28 18.07 0.33zm-31.57 -51.41l31.84 33.19 -18.34 17.89 -31.84 -33.19 0.27 -18.22 18.07 0.33zm-18.07 -0.33l9.17 -8.94 8.9 9.28 -18.07 -0.33zm-10.04 9.79l10.04 -9.79 17.8 18.55 -10.04 9.79 -18.07 -0.33 0.27 -18.22zm-0.27 18.22l-8.9 -9.28 9.17 -8.94 -0.27 18.22zm23.23 24.22l-23.23 -24.22 18.34 -17.89 23.23 24.22 -0.27 18.22 -18.07 -0.33zm18.34 -17.89l8.9 9.28 -9.17 8.94 0.27 -18.22zm-31.65 12.91l13.58 -13.25 17.8 18.55 -13.58 13.25 -18.07 -0.33 0.27 -18.22zm17.8 18.55l-9.17 8.94 -8.9 -9.28 18.07 0.33zm-30.99 -50.81l31.27 32.59 -18.34 17.89 -31.27 -32.59 0.27 -18.22 18.07 0.33zm-18.07 -0.33l9.17 -8.94 8.9 9.28 -18.07 -0.33zm-9.45 9.22l9.45 -9.22 17.8 18.55 -9.45 9.22 -18.07 -0.33 0.27 -18.22zm-0.27 18.22l-8.9 -9.28 9.17 -8.94 -0.27 18.22zm23.23 24.22l-23.23 -24.22 18.34 -17.89 23.23 24.22 -0.27 18.22 -18.07 -0.33zm18.34 -17.89l8.9 9.28 -9.17 8.94 0.27 -18.22zm-24.86 6.29l6.79 -6.63 17.8 18.55 -6.79 6.63 -18.07 -0.33 0.27 -18.22zm17.8 18.55l-9.17 8.94 -8.9 -9.28 18.07 0.33zm-8.04 -26.88l8.31 8.66 -18.34 17.89 -8.31 -8.66 0.27 -18.22 18.07 0.33zm-18.07 -0.33l9.17 -8.94 8.9 9.28 -18.07 -0.33zm-8.86 8.64l8.86 -8.64 17.8 18.55 -8.86 8.64 -18.07 -0.33 0.27 -18.22zm17.8 18.55l-9.17 8.94 -8.9 -9.28 18.07 0.33zm-51.95 -72.65l52.22 54.43 -18.34 17.89 -52.22 -54.43 0.27 -18.22 18.07 0.33zm-18.34 17.89l-8.9 -9.28 9.17 -8.94 -0.27 18.22zm26.04 -7.44l-7.97 7.78 -17.8 -18.55 7.97 -7.78 18.07 0.33 -0.27 18.22zm0.27 -18.22l8.9 9.28 -9.17 8.94 0.27 -18.22zm-23.81 -24.82l23.81 24.82 -18.34 17.89 -23.81 -24.82 -0.02 -17.92 18.36 0.04zm-18.34 17.89l-8.62 -8.98 8.59 -8.95 0.02 17.92zm25.49 -7.38l-7.13 7.42 -18.38 -17.96 7.13 -7.42 18.37 0.05 0.01 17.91zm-0.01 -17.91l8.59 8.98 -8.58 8.93 -0.01 -17.91zm-15.53 -16.23l15.53 16.23 -18.36 17.86 -15.53 -16.23 0.28 -18.21 18.08 0.34zm-18.36 17.86l-8.88 -9.28 9.16 -8.93 -0.28 18.21z"/>
   <path id="1" class="fil1" d="M18.06 81.58l64.96 -63.36 15.21 15.85 8.86 -8.64 16.93 17.64 7.97 -7.77 14.91 15.55 7.38 -7.2 15.78 16.45 7.97 -7.77 8.32 8.67 8.27 -8.06 14.92 15.55 -15.35 14.97 -8.9 -9.27 -6.79 6.63 -24.67 -25.72 -9.45 9.22 102.13 106.46 -16.83 16.41 -71.14 -74.16 -9.16 8.93 33.27 34.69 -14.47 14.11 -31.84 -33.19 -10.04 9.79 23.23 24.22 -13.58 13.25 -31.27 -32.59 -9.45 9.22 23.23 24.22 -6.79 6.63 -8.31 -8.66 -8.86 8.64 -52.22 -54.43 7.97 -7.78 -23.81 -24.82 7.13 -7.42 -15.53 -16.23z"/>
  </g>
 </g>
</svg>
